Coordinates
version=1
nRows=11
nColumns=40
inDegrees=yes

Units are S.I. units (second, meters, Newtons, ...)
If the header above contains a line with 'inDegrees', this indicates whether rotational values are in degrees (yes) or radians (no).

endheader
time	pelvis_tilt	pelvis_list	pelvis_rotation	pelvis_tx	pelvis_ty	pelvis_tz	hip_flexion_r	hip_adduction_r	hip_rotation_r	knee_angle_r	knee_angle_r_beta	ankle_angle_r	subtalar_angle_r	mtp_angle_r	hip_flexion_l	hip_adduction_l	hip_rotation_l	knee_angle_l	knee_angle_l_beta	ankle_angle_l	subtalar_angle_l	mtp_angle_l	lumbar_extension	lumbar_bending	lumbar_rotation	arm_flex_r	arm_add_r	arm_rot_r	elbow_flex_r	pro_sup_r	wrist_flex_r	wrist_dev_r	arm_flex_l	arm_add_l	arm_rot_l	elbow_flex_l	pro_sup_l	wrist_flex_l	wrist_dev_l
      4.39000000	     -5.76890862	      5.24589015	     10.90328170	     -3.58703338	      0.90950892	      0.26789836	      7.88903082	     -6.71801989	    -11.74086912	    104.61792716	      1.82592729	      3.89975661	      0.00000000	      0.00000000	     26.65409767	      7.02543018	     -3.97230600	     49.39413787	      0.86209034	     26.67633825	      0.00000000	      0.00000000	    -35.93605509	     -0.81776606	     -5.94343222	     -7.63295589	    -22.23954469	     -0.06970475	     93.40703752	     88.18832568	      0.00000000	      0.00000000	      0.68699463	    -24.49000639	     13.61794970	    116.73680650	      1.38685937	      0.00000000	      0.00000000
      4.39500000	     -5.92115394	      4.93699240	     11.59660416	     -3.56302602	      0.90775499	      0.26655271	     11.06838817	     -7.31594472	    -11.79864987	    107.56861091	      1.87742643	      6.14188781	      0.00000000	      0.00000000	     25.33462225	      6.71041952	     -3.36552370	     49.99185890	      0.87252254	     28.18913337	      0.00000000	      0.00000000	    -35.64430186	     -0.00329615	     -6.92697345	     -9.66511503	    -22.87862855	     -1.38402488	     93.52279555	     88.19854494	      0.00000000	      0.00000000	      3.79443001	    -23.82566971	     14.63175544	    116.59816985	      1.35946912	      0.00000000	      0.00000000
      4.40000000	     -6.18445518	      4.58404717	     12.19414940	     -3.53890982	      0.90597558	      0.26532303	     14.48276563	     -7.87022278	    -11.63360760	    110.19348085	      1.92323906	      8.22709471	      0.00000000	      0.00000000	     24.10017542	      6.30837330	     -2.77450590	     50.46036775	      0.88069956	     29.55370085	      0.00000000	      0.00000000	    -35.18266141	      0.77238924	     -7.78150450	    -11.83194531	    -23.58637364	     -2.71581349	     93.81749466	     88.16281829	      0.00000000	      0.00000000	      6.89967400	    -23.20550971	     15.65238800	    116.41197610	      1.36907674	      0.00000000	      0.00000000
      4.40500000	     -6.54621848	      4.17783995	     12.67904358	     -3.51463100	      0.90417638	      0.26420980	     18.11789932	     -8.35067903	    -11.25522899	    112.47246188	      1.96301478	     10.14275711	      0.00000000	      0.00000000	     22.91204795	      5.81345102	     -2.22408123	     50.75194980	      0.88578863	     30.75629204	      0.00000000	      0.00000000	    -34.57973399	      1.51947933	     -8.50011680	    -14.15103097	    -24.32488868	     -4.12270863	     94.32016637	     88.16573562	      0.00000000	      0.00000000	      9.91272502	    -22.63518510	     16.60844180	    116.28974872	      1.34333382	      0.00000000	      0.00000000
      4.41000000	     -6.97826718	      3.71633963	     13.03383504	     -3.49013204	      0.90237790	      0.26322671	     21.93288108	     -8.72317642	    -10.67896397	    114.38642384	      1.99641972	     11.88001309	      0.00000000	      0.00000000	     21.71591780	      5.21792204	     -1.74592432	     50.82975635	      0.88714661	     31.79057051	      0.00000000	      0.00000000	    -33.85187084	      2.23352557	     -9.00828739	    -16.65878857	    -25.10859061	     -5.61371198	     94.99220960	     88.13772007	      0.00000000	      0.00000000	     12.90399012	    -22.08191523	     17.59011014	    116.13427726	      1.38827380	      0.00000000	      0.00000000
      4.41500000	     -7.47012544	      3.19171465	     13.25770234	     -3.46537172	      0.90058187	      0.26237156	     25.90092203	     -8.95564236	     -9.94152333	    115.92204303	      2.02322133	     13.43168763	      0.00000000	      0.00000000	     20.48843869	      4.51755094	     -1.35516623	     50.67674740	      0.88447610	     32.64499792	      0.00000000	      0.00000000	    -33.01756432	      2.93290163	     -9.37642700	    -19.27758700	    -25.91049766	     -7.14230612	     95.77106504	     88.12835925	      0.00000000	      0.00000000	     15.73913203	    -21.57586567	     18.47775618	    116.07648940	      1.36832260	      0.00000000	      0.00000000
      4.42000000	     -7.99013847	      2.60067948	     13.34878693	     -3.44032179	      0.89881329	      0.26164455	     29.96155156	     -9.01874792	     -9.08931598	    117.06925543	      2.04324396	     14.80127294	      0.00000000	      0.00000000	     19.19140431	      3.70541963	     -1.06394948	     50.29200694	      0.87776111	     33.30351776	      0.00000000	      0.00000000	    -32.10788268	      3.63235155	     -9.54354630	    -22.05534324	    -26.72304190	     -8.74440258	     96.66622104	     88.10193559	      0.00000000	      0.00000000	     18.48661617	    -21.11065351	     19.35198806	    116.04503115	      1.39990325	      0.00000000	      0.00000000
      4.42500000	     -8.51844276	      1.95059577	     13.30915510	     -3.41494453	      0.89710867	      0.26102868	     34.05759694	     -8.90566654	     -8.16978451	    117.82115304	      2.05636705	     15.99086239	      0.00000000	      0.00000000	     17.79471072	      2.79178357	     -0.87814723	     49.66932862	      0.86689332	     33.74120669	      0.00000000	      0.00000000	    -31.15492757	      4.34108052	     -9.55136828	    -24.94962785	    -27.53196749	    -10.40021328	     97.64096916	     88.07368598	      0.00000000	      0.00000000	     21.07257075	    -20.67437713	     20.12848774	    116.10978973	      1.40265668	      0.00000000	      0.00000000
      4.43000000	     -9.02994741	      1.24241291	     13.14457741	     -3.38922108	      0.89551871	      0.26050880	     38.12151454	     -8.60759271	     -7.23649210	    118.17400660	      2.06252551	     17.01001268	      0.00000000	      0.00000000	     16.27359846	      1.77956201	     -0.79621125	     48.81754626	      0.85202691	     33.92383226	      0.00000000	      0.00000000	    -30.18913850	      5.07768989	     -9.40176158	    -27.94183419	    -28.32456084	    -12.10986023	     98.67266027	     88.04042526	      0.00000000	      0.00000000	     23.49204619	    -20.28231924	     20.81616746	    116.26765644	      1.41433214	      0.00000000	      0.00000000
      4.43500000	     -9.50111185	      0.48727351	     12.85695119	     -3.36312028	      0.89411609	      0.26006295	     42.08041340	     -8.13385850	     -6.33481125	    118.12525541	      2.06167464	     17.87028077	      0.00000000	      0.00000000	     14.59934920	      0.68366236	     -0.82036549	     47.73793993	      0.83318423	     33.81110283	      0.00000000	      0.00000000	    -29.24604289	      5.84615568	     -9.12205176	    -30.99094568	    -29.10764821	    -13.83471007	     99.72841108	     88.00762610	      0.00000000	      0.00000000	     25.71932680	    -19.93958681	     21.38126184	    116.52238335	      1.42960660	      0.00000000	      0.00000000
      4.44000000	     -9.91191763	     -0.30863467	     12.45748864	     -3.33662569	      0.89298494	      0.25966564	     45.86214678	     -7.50074774	     -5.51485751	    117.67360404	      2.05379183	     18.59093846	      0.00000000	      0.00000000	     12.75179397	     -0.47925952	     -0.93763322	     46.43186490	      0.81038892	     33.35195881	      0.00000000	      0.00000000	    -28.35852593	      6.65675613	     -8.71581079	    -34.07595402	    -29.86254986	    -15.57845283	    100.77147160	     87.96392216	      0.00000000	      0.00000000	     27.74747030	    -19.62312103	     21.82366607	    116.86167679	      1.42464310	      0.00000000	      0.00000000
